<svg width="444" height="444" viewBox="0 0 444 444" fill="none" xmlns="http://www.w3.org/2000/svg">
<g clip-path="url(#clip0_247_9)">
<rect width="444" height="444" rx="222" fill="#15203E"/>
<g clip-path="url(#clip1_247_9)">
<rect x="11.1001" y="222" width="111" height="111" transform="rotate(-45 11.1001 222)" fill="#ED6011"/>
<path d="M-20.1187 281.662V253.912H122.1C122.1 269.238 109.676 281.662 94.3501 281.662H-20.1187Z" fill="#15203E"/>
<path d="M-5.5498 251.137V228.937H107.531C107.531 241.198 97.5922 251.137 85.3314 251.137H-5.5498Z" fill="#15203E"/>
<path d="M9.01904 226.162V209.512H92.9628C92.9628 218.708 85.5083 226.162 76.3128 226.162H9.01904Z" fill="#15203E"/>
<path d="M18.7314 206.737V194.25H83.2502C83.2502 201.147 77.6594 206.737 70.7627 206.737H18.7314Z" fill="#15203E"/>
<path d="M26.3628 191.475V181.762H75.619C75.619 187.127 71.2706 191.475 65.9065 191.475H26.3628Z" fill="#15203E"/>
<path d="M33.3003 178.987V172.05H68.6815C68.6815 175.881 65.5755 178.987 61.744 178.987H33.3003Z" fill="#15203E"/>
</g>
<path d="M179.459 247.706C178.727 247.706 178.127 247.473 177.661 247.007C177.195 246.541 176.962 245.941 176.962 245.209V180.274C176.962 179.541 177.195 178.942 177.661 178.476C178.127 178.009 178.727 177.776 179.459 177.776H226.113C226.845 177.776 227.445 178.009 227.911 178.476C228.377 178.942 228.61 179.541 228.61 180.274V189.664C228.61 190.397 228.377 190.996 227.911 191.463C227.445 191.929 226.845 192.162 226.113 192.162H194.244V205.648H223.915C224.647 205.648 225.247 205.915 225.713 206.448C226.179 206.914 226.412 207.513 226.412 208.246V216.937C226.412 217.603 226.179 218.202 225.713 218.735C225.247 219.201 224.647 219.435 223.915 219.435H194.244V233.321H226.912C227.644 233.321 228.244 233.554 228.71 234.02C229.176 234.486 229.409 235.086 229.409 235.818V245.209C229.409 245.941 229.176 246.541 228.71 247.007C228.244 247.473 227.644 247.706 226.912 247.706H179.459ZM244.162 247.706C243.496 247.706 242.963 247.506 242.563 247.107C242.164 246.707 241.964 246.174 241.964 245.508V178.975C241.964 178.309 242.164 177.776 242.563 177.377C242.963 176.977 243.496 176.777 244.162 176.777H245.86C246.526 176.777 247.059 176.977 247.458 177.377C247.858 177.776 248.058 178.309 248.058 178.975V245.508C248.058 246.174 247.858 246.707 247.458 247.107C247.059 247.506 246.526 247.706 245.86 247.706H244.162ZM283.583 248.705C277.123 248.705 271.995 246.607 268.199 242.412C264.402 238.149 262.238 232.588 261.705 225.728C261.638 224.729 261.605 223.397 261.605 221.732C261.605 220.067 261.638 218.735 261.705 217.736C262.038 213.207 263.104 209.211 264.902 205.748C266.7 202.285 269.164 199.588 272.294 197.656C275.491 195.725 279.254 194.759 283.583 194.759C288.245 194.759 292.208 195.792 295.471 197.856C298.735 199.921 301.232 202.884 302.964 206.747C304.762 210.61 305.661 215.205 305.661 220.533V222.032C305.661 222.698 305.428 223.231 304.962 223.63C304.562 224.03 304.029 224.23 303.363 224.23H267.799C267.799 224.23 267.799 224.363 267.799 224.629C267.799 224.896 267.799 225.096 267.799 225.229C267.932 228.226 268.631 231.09 269.897 233.82C271.162 236.484 272.96 238.682 275.291 240.414C277.622 242.079 280.386 242.911 283.583 242.911C286.447 242.911 288.811 242.478 290.676 241.612C292.607 240.747 294.139 239.814 295.271 238.815C296.404 237.75 297.136 236.95 297.469 236.418C298.069 235.552 298.535 235.052 298.868 234.919C299.201 234.719 299.734 234.619 300.466 234.619H302.065C302.664 234.619 303.164 234.819 303.563 235.219C304.029 235.552 304.229 236.018 304.163 236.617C304.096 237.55 303.563 238.715 302.564 240.114C301.632 241.446 300.266 242.778 298.468 244.11C296.737 245.442 294.605 246.541 292.075 247.407C289.544 248.272 286.713 248.705 283.583 248.705ZM267.799 218.635H299.567V218.236C299.567 214.906 298.934 211.909 297.669 209.245C296.404 206.581 294.572 204.483 292.175 202.951C289.777 201.353 286.913 200.553 283.583 200.553C280.253 200.553 277.389 201.353 274.992 202.951C272.661 204.483 270.863 206.581 269.597 209.245C268.398 211.909 267.799 214.906 267.799 218.236V218.635ZM335.061 247.706C333.996 247.706 333.163 247.473 332.564 247.007C332.031 246.541 331.598 245.941 331.265 245.209L312.883 198.855C312.75 198.456 312.684 198.089 312.684 197.756C312.684 197.223 312.883 196.757 313.283 196.358C313.683 195.958 314.149 195.758 314.682 195.758H316.78C317.446 195.758 317.945 195.958 318.278 196.358C318.678 196.691 318.911 196.99 318.977 197.257L335.86 240.414L352.744 197.257C352.877 196.99 353.11 196.691 353.443 196.358C353.776 195.958 354.275 195.758 354.941 195.758H357.039C357.572 195.758 358.038 195.958 358.438 196.358C358.837 196.757 359.037 197.223 359.037 197.756C359.037 198.089 358.971 198.456 358.837 198.855L340.456 245.209C340.189 245.941 339.757 246.541 339.157 247.007C338.558 247.473 337.725 247.706 336.66 247.706H335.061ZM382.871 248.705C379.674 248.705 376.711 248.039 373.98 246.707C371.316 245.375 369.152 243.61 367.487 241.413C365.822 239.148 364.989 236.617 364.989 233.82C364.989 229.291 366.821 225.662 370.484 222.931C374.147 220.2 378.909 218.436 384.769 217.636L400.554 215.439V211.942C400.554 208.412 399.455 205.648 397.257 203.65C395.126 201.586 391.696 200.553 386.967 200.553C383.504 200.553 380.707 201.253 378.576 202.651C376.444 203.983 374.979 205.748 374.18 207.946C373.847 208.945 373.214 209.445 372.282 209.445H370.683C369.884 209.445 369.318 209.245 368.985 208.845C368.652 208.379 368.486 207.846 368.486 207.247C368.486 206.314 368.819 205.149 369.485 203.75C370.217 202.352 371.316 200.986 372.781 199.654C374.247 198.256 376.145 197.09 378.476 196.158C380.807 195.225 383.637 194.759 386.967 194.759C390.897 194.759 394.127 195.292 396.657 196.358C399.255 197.423 401.253 198.822 402.651 200.553C404.117 202.218 405.149 204.083 405.748 206.148C406.348 208.212 406.647 210.244 406.647 212.242V245.508C406.647 246.174 406.448 246.707 406.048 247.107C405.648 247.506 405.116 247.706 404.45 247.706H402.751C402.085 247.706 401.553 247.506 401.153 247.107C400.753 246.707 400.554 246.174 400.554 245.508V240.813C399.754 242.012 398.622 243.211 397.157 244.41C395.692 245.608 393.794 246.641 391.463 247.506C389.198 248.306 386.334 248.705 382.871 248.705ZM383.87 242.911C386.934 242.911 389.731 242.245 392.262 240.913C394.793 239.581 396.791 237.55 398.256 234.819C399.788 232.022 400.554 228.525 400.554 224.33V220.933L387.666 222.731C382.205 223.464 378.076 224.729 375.279 226.527C372.482 228.326 371.083 230.59 371.083 233.321C371.083 235.518 371.716 237.317 372.981 238.715C374.247 240.114 375.845 241.179 377.776 241.912C379.774 242.578 381.806 242.911 383.87 242.911Z" fill="#F1F5F2"/>
<path d="M183.805 283.712C182.456 283.712 181.307 283.496 180.358 283.063C179.426 282.63 178.71 282.072 178.21 281.39C177.711 280.707 177.445 279.983 177.411 279.217C177.411 279.084 177.461 278.967 177.561 278.867C177.661 278.767 177.786 278.717 177.936 278.717H178.435C178.602 278.717 178.727 278.767 178.81 278.867C178.91 278.967 178.968 279.084 178.985 279.217C179.051 279.683 179.259 280.149 179.609 280.615C179.959 281.065 180.475 281.448 181.157 281.764C181.84 282.064 182.723 282.214 183.805 282.214C185.437 282.214 186.627 281.922 187.376 281.34C188.125 280.74 188.5 279.941 188.5 278.942C188.5 278.276 188.3 277.743 187.901 277.344C187.518 276.927 186.927 276.561 186.127 276.245C185.328 275.912 184.304 275.545 183.056 275.146C181.873 274.763 180.899 274.372 180.133 273.972C179.368 273.556 178.801 273.056 178.435 272.473C178.086 271.891 177.911 271.141 177.911 270.226C177.911 269.377 178.135 268.619 178.585 267.953C179.035 267.27 179.684 266.729 180.533 266.33C181.399 265.93 182.448 265.73 183.68 265.73C184.662 265.73 185.52 265.863 186.252 266.13C186.985 266.396 187.593 266.754 188.076 267.204C188.558 267.637 188.925 268.111 189.174 268.627C189.424 269.127 189.557 269.618 189.574 270.101C189.574 270.217 189.532 270.334 189.449 270.451C189.366 270.55 189.233 270.6 189.05 270.6H188.55C188.467 270.6 188.359 270.567 188.225 270.5C188.109 270.434 188.034 270.301 188.001 270.101C187.901 269.268 187.459 268.586 186.677 268.053C185.911 267.503 184.912 267.229 183.68 267.229C182.448 267.229 181.441 267.47 180.658 267.953C179.875 268.436 179.484 269.193 179.484 270.226C179.484 270.892 179.659 271.441 180.009 271.874C180.358 272.29 180.908 272.665 181.657 272.998C182.406 273.314 183.372 273.664 184.554 274.047C185.803 274.447 186.835 274.846 187.651 275.246C188.467 275.645 189.075 276.136 189.474 276.719C189.874 277.285 190.074 278.026 190.074 278.942C190.074 279.958 189.815 280.823 189.299 281.539C188.8 282.239 188.084 282.78 187.151 283.163C186.219 283.529 185.104 283.712 183.805 283.712ZM198.302 283.712C197.103 283.712 196.096 283.462 195.28 282.963C194.481 282.463 193.865 281.781 193.432 280.915C193.016 280.049 192.791 279.084 192.758 278.018C192.741 277.768 192.733 277.419 192.733 276.969C192.733 276.519 192.741 276.17 192.758 275.92C192.791 274.838 193.016 273.872 193.432 273.023C193.865 272.157 194.481 271.474 195.28 270.975C196.096 270.475 197.103 270.226 198.302 270.226C199.501 270.226 200.5 270.475 201.299 270.975C202.115 271.474 202.731 272.157 203.147 273.023C203.58 273.872 203.813 274.838 203.846 275.92C203.863 276.17 203.871 276.519 203.871 276.969C203.871 277.419 203.863 277.768 203.846 278.018C203.813 279.084 203.58 280.049 203.147 280.915C202.731 281.781 202.115 282.463 201.299 282.963C200.5 283.462 199.501 283.712 198.302 283.712ZM198.302 282.264C199.468 282.264 200.417 281.889 201.149 281.14C201.882 280.391 202.273 279.308 202.323 277.893C202.34 277.643 202.348 277.335 202.348 276.969C202.348 276.603 202.34 276.295 202.323 276.045C202.273 274.613 201.882 273.531 201.149 272.798C200.417 272.049 199.468 271.674 198.302 271.674C197.137 271.674 196.187 272.049 195.455 272.798C194.722 273.531 194.331 274.613 194.281 276.045C194.264 276.295 194.256 276.603 194.256 276.969C194.256 277.335 194.264 277.643 194.281 277.893C194.331 279.308 194.722 280.391 195.455 281.14C196.187 281.889 197.137 282.264 198.302 282.264ZM208.886 283.462C208.719 283.462 208.586 283.413 208.486 283.313C208.386 283.213 208.336 283.08 208.336 282.913V271.924H206.114C205.947 271.924 205.814 271.874 205.714 271.774C205.614 271.674 205.564 271.541 205.564 271.375V271.025C205.564 270.858 205.614 270.725 205.714 270.625C205.814 270.525 205.947 270.475 206.114 270.475H208.336V269.052C208.336 268.303 208.436 267.62 208.636 267.004C208.853 266.388 209.227 265.897 209.76 265.53C210.31 265.164 211.092 264.981 212.108 264.981H213.406C213.573 264.981 213.706 265.031 213.806 265.131C213.906 265.231 213.956 265.364 213.956 265.53V265.88C213.956 266.047 213.906 266.18 213.806 266.28C213.706 266.38 213.573 266.43 213.406 266.43H212.108C211.225 266.43 210.626 266.671 210.31 267.154C210.01 267.62 209.86 268.294 209.86 269.177V270.475H213.157C213.323 270.475 213.456 270.525 213.556 270.625C213.656 270.725 213.706 270.858 213.706 271.025V271.375C213.706 271.541 213.656 271.674 213.556 271.774C213.456 271.874 213.323 271.924 213.157 271.924H209.86V282.913C209.86 283.08 209.81 283.213 209.71 283.313C209.61 283.413 209.477 283.462 209.311 283.462H208.886ZM220.483 283.462C219.617 283.462 218.935 283.279 218.435 282.913C217.936 282.547 217.586 282.047 217.386 281.415C217.186 280.782 217.087 280.074 217.087 279.292V271.924H215.138C214.972 271.924 214.839 271.874 214.739 271.774C214.639 271.674 214.589 271.541 214.589 271.375V271.025C214.589 270.858 214.639 270.725 214.739 270.625C214.839 270.525 214.972 270.475 215.138 270.475H217.087V266.28C217.087 266.113 217.136 265.98 217.236 265.88C217.336 265.78 217.469 265.73 217.636 265.73H218.061C218.227 265.73 218.36 265.78 218.46 265.88C218.56 265.98 218.61 266.113 218.61 266.28V270.475H221.707C221.873 270.475 222.007 270.525 222.106 270.625C222.206 270.725 222.256 270.858 222.256 271.025V271.375C222.256 271.541 222.206 271.674 222.106 271.774C222.007 271.874 221.873 271.924 221.707 271.924H218.61V279.192C218.61 280.074 218.752 280.765 219.035 281.265C219.334 281.764 219.859 282.014 220.608 282.014H221.957C222.123 282.014 222.256 282.064 222.356 282.164C222.456 282.264 222.506 282.397 222.506 282.563V282.913C222.506 283.08 222.456 283.213 222.356 283.313C222.256 283.413 222.123 283.462 221.957 283.462H220.483ZM237.771 283.712C236.255 283.712 235.015 283.421 234.049 282.838C233.1 282.239 232.393 281.431 231.926 280.416C231.46 279.4 231.202 278.243 231.152 276.944C231.135 276.261 231.127 275.529 231.127 274.746C231.127 273.964 231.135 273.214 231.152 272.498C231.202 271.2 231.46 270.043 231.926 269.027C232.393 267.995 233.1 267.187 234.049 266.604C235.015 266.022 236.255 265.73 237.771 265.73C238.953 265.73 239.96 265.897 240.792 266.23C241.625 266.563 242.299 267.004 242.815 267.553C243.348 268.086 243.74 268.669 243.989 269.302C244.256 269.918 244.406 270.525 244.439 271.125C244.455 271.275 244.406 271.4 244.289 271.499C244.189 271.583 244.064 271.624 243.914 271.624H243.415C243.282 271.624 243.165 271.591 243.065 271.524C242.965 271.441 242.899 271.3 242.865 271.1C242.549 269.618 241.95 268.602 241.067 268.053C240.201 267.503 239.103 267.229 237.771 267.229C236.255 267.229 235.048 267.662 234.149 268.527C233.267 269.377 232.792 270.742 232.726 272.623C232.676 273.989 232.676 275.387 232.726 276.819C232.792 278.701 233.267 280.074 234.149 280.94C235.048 281.789 236.255 282.214 237.771 282.214C239.103 282.214 240.201 281.939 241.067 281.39C241.95 280.84 242.549 279.824 242.865 278.343C242.899 278.143 242.965 278.01 243.065 277.943C243.165 277.86 243.282 277.818 243.415 277.818H243.914C244.064 277.818 244.189 277.868 244.289 277.968C244.406 278.051 244.455 278.168 244.439 278.318C244.406 278.917 244.256 279.533 243.989 280.166C243.74 280.782 243.348 281.365 242.815 281.914C242.299 282.447 241.625 282.88 240.792 283.213C239.96 283.546 238.953 283.712 237.771 283.712ZM252.74 283.712C251.541 283.712 250.534 283.462 249.718 282.963C248.919 282.463 248.302 281.781 247.87 280.915C247.453 280.049 247.229 279.084 247.195 278.018C247.179 277.768 247.17 277.419 247.17 276.969C247.17 276.519 247.179 276.17 247.195 275.92C247.229 274.838 247.453 273.872 247.87 273.023C248.302 272.157 248.919 271.474 249.718 270.975C250.534 270.475 251.541 270.226 252.74 270.226C253.938 270.226 254.937 270.475 255.737 270.975C256.553 271.474 257.169 272.157 257.585 273.023C258.018 273.872 258.251 274.838 258.284 275.92C258.301 276.17 258.309 276.519 258.309 276.969C258.309 277.419 258.301 277.768 258.284 278.018C258.251 279.084 258.018 280.049 257.585 280.915C257.169 281.781 256.553 282.463 255.737 282.963C254.937 283.462 253.938 283.712 252.74 283.712ZM252.74 282.264C253.905 282.264 254.854 281.889 255.587 281.14C256.319 280.391 256.711 279.308 256.761 277.893C256.777 277.643 256.786 277.335 256.786 276.969C256.786 276.603 256.777 276.295 256.761 276.045C256.711 274.613 256.319 273.531 255.587 272.798C254.854 272.049 253.905 271.674 252.74 271.674C251.574 271.674 250.625 272.049 249.893 272.798C249.16 273.531 248.769 274.613 248.719 276.045C248.702 276.295 248.694 276.603 248.694 276.969C248.694 277.335 248.702 277.643 248.719 277.893C248.769 279.308 249.16 280.391 249.893 281.14C250.625 281.889 251.574 282.264 252.74 282.264ZM266.416 283.712C265.451 283.712 264.627 283.537 263.944 283.188C263.278 282.838 262.737 282.372 262.321 281.789C261.904 281.206 261.596 280.557 261.396 279.841C261.213 279.125 261.105 278.401 261.072 277.668C261.055 277.419 261.047 277.185 261.047 276.969C261.047 276.753 261.055 276.519 261.072 276.27C261.105 275.537 261.213 274.813 261.396 274.097C261.596 273.381 261.904 272.732 262.321 272.149C262.737 271.566 263.278 271.1 263.944 270.75C264.627 270.401 265.451 270.226 266.416 270.226C267.449 270.226 268.298 270.417 268.964 270.8C269.647 271.183 270.196 271.649 270.612 272.199V266.28C270.612 266.113 270.662 265.98 270.762 265.88C270.862 265.78 270.995 265.73 271.162 265.73H271.586C271.753 265.73 271.886 265.78 271.986 265.88C272.086 265.98 272.136 266.113 272.136 266.28V282.913C272.136 283.08 272.086 283.213 271.986 283.313C271.886 283.413 271.753 283.462 271.586 283.462H271.162C270.995 283.462 270.862 283.413 270.762 283.313C270.662 283.213 270.612 283.08 270.612 282.913V281.739C270.196 282.305 269.647 282.78 268.964 283.163C268.298 283.529 267.449 283.712 266.416 283.712ZM266.566 282.264C267.515 282.264 268.281 282.039 268.864 281.589C269.447 281.14 269.88 280.582 270.163 279.916C270.446 279.233 270.596 278.551 270.612 277.868C270.629 277.618 270.637 277.294 270.637 276.894C270.637 276.494 270.629 276.17 270.612 275.92C270.596 275.254 270.437 274.596 270.138 273.947C269.855 273.298 269.422 272.757 268.839 272.324C268.256 271.891 267.499 271.674 266.566 271.674C265.601 271.674 264.826 271.891 264.244 272.324C263.678 272.757 263.27 273.323 263.02 274.022C262.77 274.721 262.629 275.47 262.595 276.27C262.579 276.736 262.579 277.202 262.595 277.668C262.629 278.467 262.77 279.217 263.02 279.916C263.27 280.615 263.678 281.181 264.244 281.614C264.826 282.047 265.601 282.264 266.566 282.264ZM281.029 283.712C279.414 283.712 278.132 283.188 277.183 282.139C276.234 281.073 275.692 279.683 275.559 277.968C275.543 277.718 275.534 277.385 275.534 276.969C275.534 276.553 275.543 276.22 275.559 275.97C275.642 274.838 275.909 273.839 276.358 272.973C276.808 272.107 277.424 271.433 278.207 270.95C279.006 270.467 279.947 270.226 281.029 270.226C282.194 270.226 283.185 270.484 284.001 271C284.817 271.516 285.441 272.257 285.874 273.223C286.323 274.188 286.548 275.337 286.548 276.669V277.044C286.548 277.21 286.49 277.344 286.373 277.444C286.274 277.543 286.14 277.593 285.974 277.593H277.083C277.083 277.593 277.083 277.627 277.083 277.693C277.083 277.76 277.083 277.81 277.083 277.843C277.116 278.592 277.291 279.308 277.607 279.991C277.924 280.657 278.373 281.206 278.956 281.639C279.539 282.056 280.23 282.264 281.029 282.264C281.745 282.264 282.336 282.155 282.802 281.939C283.285 281.723 283.668 281.489 283.951 281.24C284.234 280.973 284.417 280.774 284.5 280.64C284.65 280.424 284.767 280.299 284.85 280.266C284.933 280.216 285.066 280.191 285.25 280.191H285.649C285.799 280.191 285.924 280.241 286.024 280.341C286.14 280.424 286.19 280.54 286.174 280.69C286.157 280.923 286.024 281.215 285.774 281.564C285.541 281.897 285.2 282.23 284.75 282.563C284.317 282.896 283.784 283.171 283.152 283.388C282.519 283.604 281.811 283.712 281.029 283.712ZM277.083 276.195H285.025V276.095C285.025 275.262 284.867 274.513 284.55 273.847C284.234 273.181 283.776 272.657 283.177 272.274C282.577 271.874 281.861 271.674 281.029 271.674C280.196 271.674 279.48 271.874 278.881 272.274C278.298 272.657 277.849 273.181 277.532 273.847C277.233 274.513 277.083 275.262 277.083 276.095V276.195Z" fill="#F1F5F2"/>
</g>
<defs>
<clipPath id="clip0_247_9">
<rect width="444" height="444" rx="222" fill="white"/>
</clipPath>
<clipPath id="clip1_247_9">
<rect x="11.1001" y="222" width="111" height="111" rx="2.775" transform="rotate(-45 11.1001 222)" fill="white"/>
</clipPath>
</defs>
</svg>
