<svg width="640" height="640" viewBox="0 0 640 640" fill="none" xmlns="http://www.w3.org/2000/svg">
<g clip-path="url(#clip0_1_74)">
<rect width="640" height="640" rx="320" fill="#15203E"/>
<g clip-path="url(#clip1_1_74)">
<rect x="16" y="320" width="160" height="160" transform="rotate(-45 16 320)" fill="#ED6011"/>
<path d="M-29 406V366H176C176 388.091 158.091 406 136 406H-29Z" fill="#15203E"/>
<path d="M-8 362V330H155C155 347.673 140.673 362 123 362H-8Z" fill="#15203E"/>
<path d="M13 326V302H134C134 315.255 123.255 326 110 326H13Z" fill="#15203E"/>
<path d="M27 298V280H120C120 289.941 111.941 298 102 298H27Z" fill="#15203E"/>
<path d="M38 276V262H109C109 269.732 102.732 276 95 276H38Z" fill="#15203E"/>
<path d="M48 258V248H99C99 253.523 94.5228 258 89 258H48Z" fill="#15203E"/>
</g>
<path d="M258.68 358C257.624 358 256.76 357.664 256.088 356.992C255.416 356.32 255.08 355.456 255.08 354.4V260.8C255.08 259.744 255.416 258.88 256.088 258.208C256.76 257.536 257.624 257.2 258.68 257.2H325.928C326.984 257.2 327.848 257.536 328.52 258.208C329.192 258.88 329.528 259.744 329.528 260.8V274.336C329.528 275.392 329.192 276.256 328.52 276.928C327.848 277.6 326.984 277.936 325.928 277.936H279.992V297.376H322.76C323.816 297.376 324.68 297.76 325.352 298.528C326.024 299.2 326.36 300.064 326.36 301.12V313.648C326.36 314.608 326.024 315.472 325.352 316.24C324.68 316.912 323.816 317.248 322.76 317.248H279.992V337.264H327.08C328.136 337.264 329 337.6 329.672 338.272C330.344 338.944 330.68 339.808 330.68 340.864V354.4C330.68 355.456 330.344 356.32 329.672 356.992C329 357.664 328.136 358 327.08 358H258.68ZM351.945 358C350.985 358 350.217 357.712 349.641 357.136C349.065 356.56 348.777 355.792 348.777 354.832V258.928C348.777 257.968 349.065 257.2 349.641 256.624C350.217 256.048 350.985 255.76 351.945 255.76H354.393C355.353 255.76 356.121 256.048 356.697 256.624C357.273 257.2 357.561 257.968 357.561 258.928V354.832C357.561 355.792 357.273 356.56 356.697 357.136C356.121 357.712 355.353 358 354.393 358H351.945ZM408.769 359.44C399.457 359.44 392.065 356.416 386.593 350.368C381.121 344.224 378.001 336.208 377.233 326.32C377.137 324.88 377.089 322.96 377.089 320.56C377.089 318.16 377.137 316.24 377.233 314.8C377.713 308.272 379.249 302.512 381.841 297.52C384.433 292.528 387.985 288.64 392.497 285.856C397.105 283.072 402.529 281.68 408.769 281.68C415.489 281.68 421.201 283.168 425.905 286.144C430.609 289.12 434.209 293.392 436.705 298.96C439.297 304.528 440.593 311.152 440.593 318.832V320.992C440.593 321.952 440.257 322.72 439.585 323.296C439.009 323.872 438.241 324.16 437.281 324.16H386.017C386.017 324.16 386.017 324.352 386.017 324.736C386.017 325.12 386.017 325.408 386.017 325.6C386.209 329.92 387.217 334.048 389.041 337.984C390.865 341.824 393.457 344.992 396.817 347.488C400.177 349.888 404.161 351.088 408.769 351.088C412.897 351.088 416.305 350.464 418.993 349.216C421.777 347.968 423.985 346.624 425.617 345.184C427.249 343.648 428.305 342.496 428.785 341.728C429.649 340.48 430.321 339.76 430.801 339.568C431.281 339.28 432.049 339.136 433.105 339.136H435.409C436.273 339.136 436.993 339.424 437.569 340C438.241 340.48 438.529 341.152 438.433 342.016C438.337 343.36 437.569 345.04 436.129 347.056C434.785 348.976 432.817 350.896 430.225 352.816C427.729 354.736 424.657 356.32 421.009 357.568C417.361 358.816 413.281 359.44 408.769 359.44ZM386.017 316.096H431.809V315.52C431.809 310.72 430.897 306.4 429.073 302.56C427.249 298.72 424.609 295.696 421.153 293.488C417.697 291.184 413.569 290.032 408.769 290.032C403.969 290.032 399.841 291.184 396.385 293.488C393.025 295.696 390.433 298.72 388.609 302.56C386.881 306.4 386.017 310.72 386.017 315.52V316.096ZM482.971 358C481.435 358 480.235 357.664 479.371 356.992C478.603 356.32 477.979 355.456 477.499 354.4L451.003 287.584C450.811 287.008 450.715 286.48 450.715 286C450.715 285.232 451.003 284.56 451.579 283.984C452.155 283.408 452.827 283.12 453.595 283.12H456.619C457.579 283.12 458.299 283.408 458.779 283.984C459.355 284.464 459.691 284.896 459.787 285.28L484.123 347.488L508.459 285.28C508.651 284.896 508.987 284.464 509.467 283.984C509.947 283.408 510.667 283.12 511.627 283.12H514.651C515.419 283.12 516.091 283.408 516.667 283.984C517.243 284.56 517.531 285.232 517.531 286C517.531 286.48 517.435 287.008 517.243 287.584L490.747 354.4C490.363 355.456 489.739 356.32 488.875 356.992C488.011 357.664 486.811 358 485.275 358H482.971ZM551.887 359.44C547.279 359.44 543.007 358.48 539.07 356.56C535.231 354.64 532.111 352.096 529.711 348.928C527.311 345.664 526.111 342.016 526.111 337.984C526.111 331.456 528.751 326.224 534.031 322.288C539.311 318.352 546.175 315.808 554.623 314.656L577.375 311.488V306.448C577.375 301.36 575.791 297.376 572.623 294.496C569.551 291.52 564.607 290.032 557.791 290.032C552.799 290.032 548.767 291.04 545.695 293.056C542.623 294.976 540.511 297.52 539.359 300.688C538.879 302.128 537.967 302.848 536.623 302.848H534.319C533.167 302.848 532.351 302.56 531.871 301.984C531.391 301.312 531.151 300.544 531.151 299.68C531.151 298.336 531.631 296.656 532.591 294.64C533.647 292.624 535.231 290.656 537.343 288.736C539.455 286.72 542.191 285.04 545.551 283.696C548.911 282.352 552.991 281.68 557.791 281.68C563.455 281.68 568.111 282.448 571.759 283.984C575.503 285.52 578.383 287.536 580.399 290.032C582.511 292.432 583.999 295.12 584.863 298.096C585.727 301.072 586.159 304 586.159 306.88V354.832C586.159 355.792 585.871 356.56 585.295 357.136C584.719 357.712 583.951 358 582.991 358H580.543C579.583 358 578.815 357.712 578.239 357.136C577.663 356.56 577.375 355.792 577.375 354.832V348.064C576.223 349.792 574.591 351.52 572.479 353.248C570.367 354.976 567.631 356.464 564.271 357.712C561.007 358.864 556.879 359.44 551.887 359.44ZM553.327 351.088C557.743 351.088 561.775 350.128 565.423 348.208C569.071 346.288 571.951 343.36 574.063 339.424C576.271 335.392 577.375 330.352 577.375 324.304V319.408L558.799 322C550.927 323.056 544.975 324.88 540.943 327.472C536.911 330.064 534.895 333.328 534.895 337.264C534.895 340.432 535.807 343.024 537.631 345.04C539.455 347.056 541.759 348.592 544.543 349.648C547.423 350.608 550.351 351.088 553.327 351.088Z" fill="#F1F5F2"/>
<path d="M264.944 408.36C263 408.36 261.344 408.048 259.976 407.424C258.632 406.8 257.6 405.996 256.88 405.012C256.16 404.028 255.776 402.984 255.728 401.88C255.728 401.688 255.8 401.52 255.944 401.376C256.088 401.232 256.268 401.16 256.484 401.16H257.204C257.444 401.16 257.624 401.232 257.744 401.376C257.888 401.52 257.972 401.688 257.996 401.88C258.092 402.552 258.392 403.224 258.896 403.896C259.4 404.544 260.144 405.096 261.128 405.552C262.112 405.984 263.384 406.2 264.944 406.2C267.296 406.2 269.012 405.78 270.092 404.94C271.172 404.076 271.712 402.924 271.712 401.484C271.712 400.524 271.424 399.756 270.848 399.18C270.296 398.58 269.444 398.052 268.292 397.596C267.14 397.116 265.664 396.588 263.864 396.012C262.16 395.46 260.756 394.896 259.652 394.32C258.548 393.72 257.732 393 257.204 392.16C256.7 391.32 256.448 390.24 256.448 388.92C256.448 387.696 256.772 386.604 257.42 385.644C258.068 384.66 259.004 383.88 260.228 383.304C261.476 382.728 262.988 382.44 264.764 382.44C266.18 382.44 267.416 382.632 268.472 383.016C269.528 383.4 270.404 383.916 271.1 384.564C271.796 385.188 272.324 385.872 272.684 386.616C273.044 387.336 273.236 388.044 273.26 388.74C273.26 388.908 273.2 389.076 273.08 389.244C272.96 389.388 272.768 389.46 272.504 389.46H271.784C271.664 389.46 271.508 389.412 271.316 389.316C271.148 389.22 271.04 389.028 270.992 388.74C270.848 387.54 270.212 386.556 269.084 385.788C267.98 384.996 266.54 384.6 264.764 384.6C262.988 384.6 261.536 384.948 260.408 385.644C259.28 386.34 258.716 387.432 258.716 388.92C258.716 389.88 258.968 390.672 259.472 391.296C259.976 391.896 260.768 392.436 261.848 392.916C262.928 393.372 264.32 393.876 266.024 394.428C267.824 395.004 269.312 395.58 270.488 396.156C271.664 396.732 272.54 397.44 273.116 398.28C273.692 399.096 273.98 400.164 273.98 401.484C273.98 402.948 273.608 404.196 272.864 405.228C272.144 406.236 271.112 407.016 269.768 407.568C268.424 408.096 266.816 408.36 264.944 408.36ZM285.841 408.36C284.113 408.36 282.661 408 281.485 407.28C280.333 406.56 279.445 405.576 278.821 404.328C278.221 403.08 277.897 401.688 277.849 400.152C277.825 399.792 277.813 399.288 277.813 398.64C277.813 397.992 277.825 397.488 277.849 397.128C277.897 395.568 278.221 394.176 278.821 392.952C279.445 391.704 280.333 390.72 281.485 390C282.661 389.28 284.113 388.92 285.841 388.92C287.569 388.92 289.009 389.28 290.161 390C291.337 390.72 292.225 391.704 292.825 392.952C293.449 394.176 293.785 395.568 293.833 397.128C293.857 397.488 293.869 397.992 293.869 398.64C293.869 399.288 293.857 399.792 293.833 400.152C293.785 401.688 293.449 403.08 292.825 404.328C292.225 405.576 291.337 406.56 290.161 407.28C289.009 408 287.569 408.36 285.841 408.36ZM285.841 406.272C287.521 406.272 288.889 405.732 289.945 404.652C291.001 403.572 291.565 402.012 291.637 399.972C291.661 399.612 291.673 399.168 291.673 398.64C291.673 398.112 291.661 397.668 291.637 397.308C291.565 395.244 291.001 393.684 289.945 392.628C288.889 391.548 287.521 391.008 285.841 391.008C284.161 391.008 282.793 391.548 281.737 392.628C280.681 393.684 280.117 395.244 280.045 397.308C280.021 397.668 280.009 398.112 280.009 398.64C280.009 399.168 280.021 399.612 280.045 399.972C280.117 402.012 280.681 403.572 281.737 404.652C282.793 405.732 284.161 406.272 285.841 406.272ZM301.097 408C300.857 408 300.665 407.928 300.521 407.784C300.377 407.64 300.305 407.448 300.305 407.208V391.368H297.101C296.861 391.368 296.669 391.296 296.525 391.152C296.381 391.008 296.309 390.816 296.309 390.576V390.072C296.309 389.832 296.381 389.64 296.525 389.496C296.669 389.352 296.861 389.28 297.101 389.28H300.305V387.228C300.305 386.148 300.449 385.164 300.737 384.276C301.049 383.388 301.589 382.68 302.357 382.152C303.149 381.624 304.277 381.36 305.741 381.36H307.613C307.853 381.36 308.045 381.432 308.189 381.576C308.333 381.72 308.405 381.912 308.405 382.152V382.656C308.405 382.896 308.333 383.088 308.189 383.232C308.045 383.376 307.853 383.448 307.613 383.448H305.741C304.469 383.448 303.605 383.796 303.149 384.492C302.717 385.164 302.501 386.136 302.501 387.408V389.28H307.253C307.493 389.28 307.685 389.352 307.829 389.496C307.973 389.64 308.045 389.832 308.045 390.072V390.576C308.045 390.816 307.973 391.008 307.829 391.152C307.685 391.296 307.493 391.368 307.253 391.368H302.501V407.208C302.501 407.448 302.429 407.64 302.285 407.784C302.141 407.928 301.949 408 301.709 408H301.097ZM317.814 408C316.566 408 315.582 407.736 314.862 407.208C314.142 406.68 313.638 405.96 313.35 405.048C313.062 404.136 312.918 403.116 312.918 401.988V391.368H310.11C309.87 391.368 309.678 391.296 309.534 391.152C309.39 391.008 309.318 390.816 309.318 390.576V390.072C309.318 389.832 309.39 389.64 309.534 389.496C309.678 389.352 309.87 389.28 310.11 389.28H312.918V383.232C312.918 382.992 312.99 382.8 313.134 382.656C313.278 382.512 313.47 382.44 313.71 382.44H314.322C314.562 382.44 314.754 382.512 314.898 382.656C315.042 382.8 315.114 382.992 315.114 383.232V389.28H319.578C319.818 389.28 320.01 389.352 320.154 389.496C320.298 389.64 320.37 389.832 320.37 390.072V390.576C320.37 390.816 320.298 391.008 320.154 391.152C320.01 391.296 319.818 391.368 319.578 391.368H315.114V401.844C315.114 403.116 315.318 404.112 315.726 404.832C316.158 405.552 316.914 405.912 317.994 405.912H319.938C320.178 405.912 320.37 405.984 320.514 406.128C320.658 406.272 320.73 406.464 320.73 406.704V407.208C320.73 407.448 320.658 407.64 320.514 407.784C320.37 407.928 320.178 408 319.938 408H317.814ZM342.732 408.36C340.548 408.36 338.76 407.94 337.368 407.1C336 406.236 334.98 405.072 334.308 403.608C333.636 402.144 333.264 400.476 333.192 398.604C333.168 397.62 333.156 396.564 333.156 395.436C333.156 394.308 333.168 393.228 333.192 392.196C333.264 390.324 333.636 388.656 334.308 387.192C334.98 385.704 336 384.54 337.368 383.7C338.76 382.86 340.548 382.44 342.732 382.44C344.436 382.44 345.888 382.68 347.088 383.16C348.288 383.64 349.26 384.276 350.004 385.068C350.772 385.836 351.336 386.676 351.696 387.588C352.08 388.476 352.296 389.352 352.344 390.216C352.368 390.432 352.296 390.612 352.128 390.756C351.984 390.876 351.804 390.936 351.588 390.936H350.868C350.676 390.936 350.508 390.888 350.364 390.792C350.22 390.672 350.124 390.468 350.076 390.18C349.62 388.044 348.756 386.58 347.484 385.788C346.236 384.996 344.652 384.6 342.732 384.6C340.548 384.6 338.808 385.224 337.512 386.472C336.24 387.696 335.556 389.664 335.46 392.376C335.388 394.344 335.388 396.36 335.46 398.424C335.556 401.136 336.24 403.116 337.512 404.364C338.808 405.588 340.548 406.2 342.732 406.2C344.652 406.2 346.236 405.804 347.484 405.012C348.756 404.22 349.62 402.756 350.076 400.62C350.124 400.332 350.22 400.14 350.364 400.044C350.508 399.924 350.676 399.864 350.868 399.864H351.588C351.804 399.864 351.984 399.936 352.128 400.08C352.296 400.2 352.368 400.368 352.344 400.584C352.296 401.448 352.08 402.336 351.696 403.248C351.336 404.136 350.772 404.976 350.004 405.768C349.26 406.536 348.288 407.16 347.088 407.64C345.888 408.12 344.436 408.36 342.732 408.36ZM364.31 408.36C362.582 408.36 361.13 408 359.954 407.28C358.802 406.56 357.914 405.576 357.29 404.328C356.69 403.08 356.366 401.688 356.318 400.152C356.294 399.792 356.282 399.288 356.282 398.64C356.282 397.992 356.294 397.488 356.318 397.128C356.366 395.568 356.69 394.176 357.29 392.952C357.914 391.704 358.802 390.72 359.954 390C361.13 389.28 362.582 388.92 364.31 388.92C366.038 388.92 367.478 389.28 368.63 390C369.806 390.72 370.694 391.704 371.294 392.952C371.918 394.176 372.254 395.568 372.302 397.128C372.326 397.488 372.338 397.992 372.338 398.64C372.338 399.288 372.326 399.792 372.302 400.152C372.254 401.688 371.918 403.08 371.294 404.328C370.694 405.576 369.806 406.56 368.63 407.28C367.478 408 366.038 408.36 364.31 408.36ZM364.31 406.272C365.99 406.272 367.358 405.732 368.414 404.652C369.47 403.572 370.034 402.012 370.106 399.972C370.13 399.612 370.142 399.168 370.142 398.64C370.142 398.112 370.13 397.668 370.106 397.308C370.034 395.244 369.47 393.684 368.414 392.628C367.358 391.548 365.99 391.008 364.31 391.008C362.63 391.008 361.262 391.548 360.206 392.628C359.15 393.684 358.586 395.244 358.514 397.308C358.49 397.668 358.478 398.112 358.478 398.64C358.478 399.168 358.49 399.612 358.514 399.972C358.586 402.012 359.15 403.572 360.206 404.652C361.262 405.732 362.63 406.272 364.31 406.272ZM384.024 408.36C382.632 408.36 381.444 408.108 380.46 407.604C379.5 407.1 378.72 406.428 378.12 405.588C377.52 404.748 377.076 403.812 376.788 402.78C376.524 401.748 376.368 400.704 376.32 399.648C376.296 399.288 376.284 398.952 376.284 398.64C376.284 398.328 376.296 397.992 376.32 397.632C376.368 396.576 376.524 395.532 376.788 394.5C377.076 393.468 377.52 392.532 378.12 391.692C378.72 390.852 379.5 390.18 380.46 389.676C381.444 389.172 382.632 388.92 384.024 388.92C385.512 388.92 386.736 389.196 387.696 389.748C388.68 390.3 389.472 390.972 390.072 391.764V383.232C390.072 382.992 390.144 382.8 390.288 382.656C390.432 382.512 390.624 382.44 390.864 382.44H391.476C391.716 382.44 391.908 382.512 392.052 382.656C392.196 382.8 392.268 382.992 392.268 383.232V407.208C392.268 407.448 392.196 407.64 392.052 407.784C391.908 407.928 391.716 408 391.476 408H390.864C390.624 408 390.432 407.928 390.288 407.784C390.144 407.64 390.072 407.448 390.072 407.208V405.516C389.472 406.332 388.68 407.016 387.696 407.568C386.736 408.096 385.512 408.36 384.024 408.36ZM384.24 406.272C385.608 406.272 386.712 405.948 387.552 405.3C388.392 404.652 389.016 403.848 389.424 402.888C389.832 401.904 390.048 400.92 390.072 399.936C390.096 399.576 390.108 399.108 390.108 398.532C390.108 397.956 390.096 397.488 390.072 397.128C390.048 396.168 389.82 395.22 389.388 394.284C388.98 393.348 388.356 392.568 387.516 391.944C386.676 391.32 385.584 391.008 384.24 391.008C382.848 391.008 381.732 391.32 380.892 391.944C380.076 392.568 379.488 393.384 379.128 394.392C378.768 395.4 378.564 396.48 378.516 397.632C378.492 398.304 378.492 398.976 378.516 399.648C378.564 400.8 378.768 401.88 379.128 402.888C379.488 403.896 380.076 404.712 380.892 405.336C381.732 405.96 382.848 406.272 384.24 406.272ZM405.087 408.36C402.759 408.36 400.911 407.604 399.543 406.092C398.175 404.556 397.395 402.552 397.203 400.08C397.179 399.72 397.167 399.24 397.167 398.64C397.167 398.04 397.179 397.56 397.203 397.2C397.323 395.568 397.707 394.128 398.355 392.88C399.003 391.632 399.891 390.66 401.019 389.964C402.171 389.268 403.527 388.92 405.087 388.92C406.767 388.92 408.195 389.292 409.371 390.036C410.547 390.78 411.447 391.848 412.071 393.24C412.719 394.632 413.043 396.288 413.043 398.208V398.748C413.043 398.988 412.959 399.18 412.791 399.324C412.647 399.468 412.455 399.54 412.215 399.54H399.399C399.399 399.54 399.399 399.588 399.399 399.684C399.399 399.78 399.399 399.852 399.399 399.9C399.447 400.98 399.699 402.012 400.155 402.996C400.611 403.956 401.259 404.748 402.099 405.372C402.939 405.972 403.935 406.272 405.087 406.272C406.119 406.272 406.971 406.116 407.643 405.804C408.339 405.492 408.891 405.156 409.299 404.796C409.707 404.412 409.971 404.124 410.091 403.932C410.307 403.62 410.475 403.44 410.595 403.392C410.715 403.32 410.907 403.284 411.171 403.284H411.747C411.963 403.284 412.143 403.356 412.287 403.5C412.455 403.62 412.527 403.788 412.503 404.004C412.479 404.34 412.287 404.76 411.927 405.264C411.591 405.744 411.099 406.224 410.451 406.704C409.827 407.184 409.059 407.58 408.147 407.892C407.235 408.204 406.215 408.36 405.087 408.36ZM399.399 397.524H410.847V397.38C410.847 396.18 410.619 395.1 410.163 394.14C409.707 393.18 409.047 392.424 408.183 391.872C407.319 391.296 406.287 391.008 405.087 391.008C403.887 391.008 402.855 391.296 401.991 391.872C401.151 392.424 400.503 393.18 400.047 394.14C399.615 395.1 399.399 396.18 399.399 397.38V397.524Z" fill="#F1F5F2"/>
</g>
<defs>
<clipPath id="clip0_1_74">
<rect width="640" height="640" rx="320" fill="white"/>
</clipPath>
<clipPath id="clip1_1_74">
<rect x="16" y="320" width="160" height="160" rx="4" transform="rotate(-45 16 320)" fill="white"/>
</clipPath>
</defs>
</svg>
