<svg width="22" height="16" viewBox="0 0 22 16" fill="none" xmlns="http://www.w3.org/2000/svg">
<path d="M20.6316 0H0.421053C0.309383 0 0.202286 0.0443609 0.123324 0.123324C0.0443609 0.202286 0 0.309383 0 0.421053V14.7368C0 15.0719 0.133082 15.3931 0.36997 15.63C0.606858 15.8669 0.928148 16 1.26316 16H19.7895C20.1245 16 20.4458 15.8669 20.6827 15.63C20.9195 15.3931 21.0526 15.0719 21.0526 14.7368V0.421053C21.0526 0.309383 21.0083 0.202286 20.9293 0.123324C20.8503 0.0443609 20.7432 0 20.6316 0ZM19.5474 0.842105L10.5263 9.11579L1.50526 0.842105H19.5474ZM19.7895 15.1579H1.26316C1.15149 15.1579 1.04439 15.1135 0.965429 15.0346C0.886466 14.9556 0.842105 14.8485 0.842105 14.7368V1.37895L10.2421 9.98947C10.3185 10.0628 10.4204 10.1038 10.5263 10.1038C10.6322 10.1038 10.7341 10.0628 10.8105 9.98947L20.2105 1.37895V14.7368C20.2105 14.8485 20.1662 14.9556 20.0872 15.0346C20.0082 15.1135 19.9011 15.1579 19.7895 15.1579Z" fill="#DEDEDE"/>
</svg>
