<svg width="36" height="37" viewBox="0 0 36 37" fill="none" xmlns="http://www.w3.org/2000/svg">
<g clip-path="url(#clip0_64_121)">
<rect y="18.5" width="24.9175" height="24.9175" transform="rotate(-45 0 18.5)" fill="#E54614"/>
<path d="M-7.00781 31.8931V25.6637H24.9178C24.9178 29.1041 22.1288 31.8931 18.6884 31.8931H-7.00781Z" fill="#15203E"/>
<path d="M-3.7373 25.041V20.0575H21.6474C21.6474 22.8098 19.4162 25.041 16.6639 25.041H-3.7373Z" fill="#15203E"/>
<path d="M-0.466797 19.4346V15.6969H18.3771C18.3771 17.7612 16.7037 19.4346 14.6395 19.4346H-0.466797Z" fill="#15203E"/>
<path d="M1.71289 15.0737V12.2705H16.1962C16.1962 13.8187 14.9412 15.0737 13.393 15.0737H1.71289Z" fill="#15203E"/>
<path d="M3.42676 11.6479V9.46767H14.4839C14.4839 10.6718 13.5078 11.6479 12.3036 11.6479H3.42676Z" fill="#15203E"/>
<path d="M4.9834 8.84473V7.28738H12.9259C12.9259 8.14748 12.2286 8.84473 11.3685 8.84473H4.9834Z" fill="#15203E"/>
</g>
<defs>
<clipPath id="clip0_64_121">
<rect y="18.5" width="24.9175" height="24.9175" rx="0.622938" transform="rotate(-45 0 18.5)" fill="white"/>
</clipPath>
</defs>
</svg>
