<svg width="16" height="16" viewBox="0 0 16 16" fill="none" xmlns="http://www.w3.org/2000/svg">
<path d="M11.6861 16C5.24203 16 0 10.758 0 4.31394C0.00136562 3.25838 0.386599 2.23934 1.08386 1.44686C1.78113 0.654373 2.74282 0.142536 3.78962 0.00679294C4.00501 -0.0183126 4.22277 0.0265711 4.41067 0.134806C4.59858 0.24304 4.74666 0.408878 4.83302 0.60779L6.5108 4.52262C6.57576 4.67453 6.60213 4.84015 6.58756 5.00472C6.573 5.16929 6.51796 5.32771 6.42733 5.46585L5.0417 7.58604C5.00923 7.63329 4.98981 7.68828 4.98542 7.74544C4.98102 7.8026 4.9918 7.85992 5.01666 7.91158C5.67455 9.26124 6.76862 10.3494 8.12181 11C8.17198 11.025 8.228 11.0359 8.28388 11.0315C8.33976 11.0271 8.39338 11.0076 8.439 10.975L10.5341 9.58101C10.6722 9.4869 10.8318 9.42915 10.9982 9.4131C11.1645 9.39705 11.3322 9.42322 11.4857 9.48919L15.3922 11.167C15.5911 11.2533 15.757 11.4014 15.8652 11.5893C15.9734 11.7772 16.0183 11.995 15.9932 12.2104C15.8575 13.2572 15.3456 14.2189 14.5531 14.9161C13.7607 15.6134 12.7416 15.9986 11.6861 16ZM3.91483 0.66622H3.87309C2.98714 0.7817 2.17342 1.21546 1.58367 1.88661C0.993915 2.55776 0.668384 3.42049 0.667775 4.31394C0.669986 7.23549 1.83155 10.0368 3.8974 12.1026C5.96325 14.1685 8.76451 15.33 11.6861 15.3322C12.5795 15.3316 13.4422 15.0061 14.1134 14.4163C14.7845 13.8266 15.2183 13.0129 15.3338 12.1269C15.3407 12.055 15.3241 11.9827 15.2865 11.921C15.2489 11.8593 15.1922 11.8114 15.1251 11.7847L11.2186 10.1069C11.1678 10.0843 11.1122 10.0748 11.0568 10.0792C11.0015 10.0836 10.948 10.1017 10.9014 10.1319L8.81463 11.5259C8.67127 11.6233 8.50493 11.6814 8.33214 11.6946C8.15936 11.7078 7.98613 11.6755 7.82966 11.601C6.34446 10.8813 5.14271 9.68538 4.41566 8.20373C4.34158 8.04756 4.30882 7.87499 4.32051 7.70253C4.3322 7.53007 4.38795 7.3635 4.48244 7.21876L5.86807 5.09858C5.89904 5.05227 5.9176 4.99878 5.92198 4.94325C5.92637 4.88771 5.91643 4.83198 5.89311 4.78138L4.21533 0.8749C4.19191 0.814013 4.15075 0.761564 4.09717 0.724355C4.04359 0.687145 3.98006 0.666892 3.91483 0.66622Z" fill="#DEDEDE"/>
</svg>
