<svg width="17" height="16" viewBox="0 0 17 16" fill="none" xmlns="http://www.w3.org/2000/svg">
<path d="M16.7866 15.4976C16.1185 14.3462 15.2205 13.3445 14.1487 12.5549C13.0768 11.7653 11.8539 11.2048 10.5561 10.9081C11.7716 10.4119 12.777 9.5088 13.4004 8.3533C14.0237 7.19781 14.2263 5.86166 13.9735 4.57332C13.7207 3.28499 13.0281 2.1245 12.0143 1.2903C11.0005 0.456097 9.72833 0 8.41543 0C7.10252 0 5.83038 0.456097 4.81656 1.2903C3.80273 2.1245 3.11019 3.28499 2.85736 4.57332C2.60453 5.86166 2.8071 7.19781 3.43045 8.3533C4.0538 9.5088 5.0592 10.4119 6.27473 10.9081C4.97693 11.2048 3.75407 11.7653 2.6822 12.5549C1.61033 13.3445 0.712395 14.3462 0.0442414 15.4976C5.8793e-05 15.575 -0.0115992 15.6667 0.0118322 15.7526C0.0352636 15.8385 0.0918649 15.9116 0.169184 15.9558C0.246504 15.9999 0.338208 16.0116 0.424123 15.9882C0.510038 15.9647 0.583126 15.9081 0.627309 15.8308C1.4155 14.4623 2.55037 13.3257 3.91761 12.5354C5.28485 11.7451 6.8362 11.329 8.41543 11.329C9.99465 11.329 11.546 11.7451 12.9132 12.5354C14.2805 13.3257 15.4153 14.4623 16.2035 15.8308C16.2337 15.8813 16.2763 15.9232 16.3274 15.9524C16.3785 15.9816 16.4362 15.9971 16.4951 15.9974C16.553 15.9963 16.61 15.9821 16.6617 15.9558C16.7379 15.9105 16.7935 15.8374 16.8168 15.752C16.8401 15.6665 16.8293 15.5753 16.7866 15.4976ZM3.4177 5.66878C3.4177 4.68033 3.71081 3.71407 4.25997 2.8922C4.80913 2.07033 5.58967 1.42976 6.50288 1.05149C7.41609 0.673225 8.42097 0.574253 9.39043 0.767092C10.3599 0.95993 11.2504 1.43592 11.9493 2.13486C12.6483 2.8338 13.1243 3.72431 13.3171 4.69378C13.51 5.66324 13.411 6.66811 13.0327 7.58133C12.6545 8.49454 12.0139 9.27508 11.192 9.82424C10.3701 10.3734 9.40388 10.6665 8.41543 10.6665C7.08995 10.6665 5.81876 10.14 4.8815 9.20271C3.94425 8.26545 3.4177 6.99426 3.4177 5.66878Z" fill="#DEDEDE"/>
</svg>
